<?xml version="1.0" standalone="no"?>
<!DOCTYPE svg PUBLIC "-//W3C//DTD SVG 20010904//EN"
 "http://www.w3.org/TR/2001/REC-SVG-20010904/DTD/svg10.dtd">
<svg version="1.0" xmlns="http://www.w3.org/2000/svg"
 width="500.000000pt" height="250.000000pt" viewBox="0 0 500.000000 250.000000"
 preserveAspectRatio="xMidYMid meet">

<g transform="translate(0.000000,250.000000) scale(0.100000,-0.100000)"
fill="#000000" stroke="none">
<path d="M1813 1776 c-85 -21 -158 -63 -212 -121 -80 -88 -86 -116 -86 -405 0
-168 4 -258 13 -287 29 -97 113 -179 230 -224 69 -27 214 -37 291 -20 126 27
240 109 282 204 23 51 24 60 24 327 l0 275 -28 57 c-77 157 -308 244 -514 194z
m222 -222 c19 -9 45 -33 57 -53 22 -34 23 -45 23 -251 0 -198 -2 -218 -20
-250 -32 -54 -77 -75 -162 -75 -80 0 -110 15 -150 75 -22 32 -23 42 -23 242 0
220 6 254 48 291 53 47 152 57 227 21z"/>
<path d="M2833 1775 c-123 -34 -215 -102 -260 -193 l-28 -57 0 -285 0 -285 27
-51 c64 -122 208 -194 389 -194 181 0 333 80 396 208 26 53 28 66 31 207 2 89
-1 156 -7 165 -9 13 -44 15 -211 15 -168 0 -202 -2 -210 -15 -14 -22 -12 -164
2 -178 7 -7 44 -12 95 -12 l83 0 0 -27 c0 -16 -9 -47 -20 -71 -15 -33 -29 -47
-62 -62 -92 -42 -210 -13 -250 60 -17 32 -18 55 -16 255 3 212 4 221 26 253
35 48 76 66 152 66 92 0 145 -29 173 -95 l21 -49 107 0 c131 0 137 7 104 117
-30 99 -144 192 -280 228 -73 18 -192 18 -262 0z"/>
<path d="M3844 1772 c-83 -25 -143 -62 -197 -122 -76 -84 -82 -115 -82 -400 0
-168 4 -258 13 -287 29 -97 112 -178 230 -224 77 -31 257 -34 345 -5 73 24
151 78 194 134 56 73 63 117 63 382 0 265 -7 309 -63 381 -39 52 -109 101
-185 130 -80 30 -234 36 -318 11z m241 -218 c19 -9 45 -33 57 -53 22 -34 23
-45 23 -251 0 -248 -5 -267 -85 -308 -37 -20 -56 -23 -109 -19 -70 5 -102 23
-138 77 -22 32 -23 42 -23 242 0 220 6 254 48 291 53 47 152 57 227 21z"/>
<path d="M632 1758 c-17 -17 -17 -999 0 -1016 17 -17 709 -17 726 0 13 13 17
165 4 185 -6 9 -72 13 -252 15 l-245 3 -3 404 c-2 309 -5 407 -15 413 -20 13
-201 10 -215 -4z"/>
</g>
</svg>
